#!OML:ASF H:\Terrain\Patient Classification 1\Terrain2\Thursday\justin.ASF
:FULLY-SPECIFIED
:DEGREES
3778
root -9.63455 18.1405 10.036 -204.222 104.414 -209.879
lowerback 11.5361 3.19853 10.5587
upperback 3.1219 5.68466 2.37004
thorax -2.38081 2.87035 -4.13818
lowerneck -15.0566 -1.51348 -7.50982
upperneck 34.9972 1.20434 0.55469
head 14.6027 -0.00145313 1.85317
rclavicle 3.51849e-014 5.08889e-014
rhumerus -28.0451 -0.06622 -83.4946
rradius 31.2004
rwrist -12.2031
rhand -22.8888 11.6225
rfingers 7.12502
rthumb 3.55044 -18.3277
lclavicle 3.51849e-014 5.08889e-014
lhumerus -33.244 6.92198 85.1153
lradius 30.036
lwrist 1.43691
lhand -18.4265 21.1812
lfingers 7.12502
lthumb 7.85873 51.0152
rfemur 11.6197 -21.8284 28.1251
rtibia 9.85689
rfoot 1.32282 -27.2224
rtoes -3.36478
lfemur -59.111 13.7148 -19.9133
ltibia 71.0615
lfoot -13.2737 -3.19754
ltoes 15.3829
3779
root -9.53376 18.185 10.0298 -204.792 104.257 -210.723
lowerback 11.5046 3.25831 10.5698
upperback 3.10444 5.7667 2.44817
thorax -2.37763 2.91081 -4.06929
lowerneck -15.141 -1.5771 -7.60229
upperneck 34.958 1.10453 0.65652
head 14.6077 -0.0429131 1.89453
rclavicle 6.44062e-014 -3.18055e-014
rhumerus -27.8049 -0.195382 -83.2704
rradius 31.0461
rwrist -12.1264
rhand -22.3945 11.3747
rfingers 7.12502
rthumb 4.0278 -18.567
lclavicle 6.44062e-014 -3.18055e-014
lhumerus -33.4521 7.56798 85.206
lradius 30.2141
lwrist 0.548886
lhand -18.149 20.7432
lfingers 7.12502
lthumb 8.12657 50.567
rfemur 11.3157 -21.729 28.007
rtibia 10.4386
rfoot 1.9163 -27.0247
rtoes -2.7633
lfemur -58.7202 13.1662 -19.7206
ltibia 70.7528
lfoot -13.9099 -2.86188
ltoes 12.3014
3780
root -9.43039 18.2343 10.026 -205.401 104.423 -211.675
lowerback 11.3872 3.40844 10.6969
upperback 3.09766 5.96981 2.54494
thorax -2.28864 3.01612 -4.04767
lowerneck -15.2475 -1.59702 -7.66333
upperneck 34.8616 1.03471 0.80683
head 14.5879 -0.0612622 1.95387
rclavicle -1.17283e-014 2.70347e-014
rhumerus -27.5224 -0.326548 -83.0718
rradius 30.7543
rwrist -11.5937
rhand -21.548 11.0736
rfingers 7.12502
rthumb 4.84524 -18.851
lclavicle -1.17283e-014 2.70347e-014
lhumerus -33.5094 8.00659 85.2431
lradius 30.2607
lwrist -0.0650914
lhand -18.0221 20.5971
lfingers 7.12502
lthumb 8.24903 50.416
rfemur 11.0213 -21.4453 28.1144
rtibia 11.0137
rfoot 2.34915 -26.7177
rtoes -2.09004
lfemur -58.3913 12.9573 -19.3415
ltibia 70.4833
lfoot -14.4995 -2.56619
ltoes 10.3321
3781
root -9.32087 18.301 10.0187 -204.518 104.512 -211.098
lowerback 11.2411 3.64228 10.571
upperback 3.06528 6.24154 2.50275
thorax -2.21229 3.15217 -4.03809
lowerneck -15.2012 -1.6822 -7.74496
upperneck 34.7385 0.879936 0.916793
head 14.5274 -0.120412 1.98498
rclavicle 4.90998e-014 -1.90833e-014
rhumerus -27.3768 -0.446855 -82.9375
rradius 30.576
rwrist -11.226
rhand -21.3346 10.8662
rfingers 7.12502
rthumb 5.05123 -19.0535
lclavicle 4.90998e-014 -1.90833e-014
lhumerus -33.4112 7.60637 85.5124
lradius 30.0401
lwrist -0.196122
lhand -18.0787 20.7284
lfingers 7.12502
lthumb 8.19443 50.5495
rfemur 10.888 -21.1765 27.729
rtibia 11.1294
rfoot 3.90789 -26.1861
rtoes -1.89457
lfemur -57.9184 12.8859 -19.4274
ltibia 70.0227
lfoot -14.9041 -2.44442
ltoes 10.4393
3782
root -9.2066 18.3747 10.0114 -203.864 104.387 -210.658
lowerback 11.1094 3.78023 10.5671
upperback 3.03929 6.39903 2.38817
thorax -2.13133 3.2323 -4.1588
lowerneck -15.1311 -1.7798 -7.85503
upperneck 34.7542 0.7122 1.08264
head 14.5265 -0.181258 2.0455
rclavicle -5.04913e-014 1.59028e-015
rhumerus -27.2858 -0.80254 -82.8262
rradius 30.4832
rwrist -10.9133
rhand -21.2875 10.9196
rfingers 7.12502
rthumb 5.09672 -18.9991
lclavicle -5.04913e-014 1.59028e-015
lhumerus -33.4627 6.93841 85.8474
lradius 30.0084
lwrist -0.117805
lhand -18.2125 20.8394
lfingers 7.12502
lthumb 8.06521 50.6655
rfemur 10.7073 -21.4227 27.1718
rtibia 11.5557
rfoot 6.12347 -25.282
rtoes -1.66807
lfemur -57.2651 12.6082 -19.6097
ltibia 69.437
lfoot -15.1017 -2.28898
ltoes 11.2649
